<?xml version="1.0" encoding="UTF-8"?>
<svg width="392px" height="520px" viewBox="0 0 392 520" version="1.1" xmlns="http://www.w3.org/2000/svg" xmlns:xlink="http://www.w3.org/1999/xlink">
    <!-- Generator: Sketch 54.1 (76490) - https://sketchapp.com -->
    <title>fire-solid</title>
    <desc>Created with Sketch.</desc>
    <defs>
        <filter x="-3.1%" y="-2.3%" width="106.2%" height="104.7%" filterUnits="objectBoundingBox" id="filter-1">
            <feOffset dx="0" dy="2" in="SourceAlpha" result="shadowOffsetOuter1"></feOffset>
            <feGaussianBlur stdDeviation="2" in="shadowOffsetOuter1" result="shadowBlurOuter1"></feGaussianBlur>
            <feColorMatrix values="0 0 0 0 0.839215686   0 0 0 0 0.188235294   0 0 0 0 0.192156863  0 0 0 1 0" type="matrix" in="shadowBlurOuter1" result="shadowMatrixOuter1"></feColorMatrix>
            <feMerge>
                <feMergeNode in="shadowMatrixOuter1"></feMergeNode>
                <feMergeNode in="SourceGraphic"></feMergeNode>
            </feMerge>
        </filter>
    </defs>
    <g id="Page-1" stroke="none" stroke-width="1" fill="none" fill-rule="evenodd">
        <g id="fire-solid" filter="url(#filter-1)" transform="translate(4.000000, 2.000000)" fill="#FF3F34" fill-rule="nonzero">
            <path d="M216,23.8606352 C216,0.0606352251 185.35,-8.90936477 171.85,10.8206352 C48,191.850635 224,200.000635 224,288.000635 C224,323.630635 194.89,352.460635 159.15,351.990635 C123.98,351.540635 96,322.220635 96,287.050635 L96,201.540635 C96,179.840635 69.53,169.310635 54.57,185.040635 C27.8,213.160635 0,261.330635 0,320.000635 C0,425.870635 86.13,512.000635 192,512.000635 C297.87,512.000635 384,425.870635 384,320.000635 C384,149.710635 216,127.000635 216,23.8606352 Z" id="Path"></path>
        </g>
    </g>
</svg>