<?xml version="1.0" encoding="iso-8859-1"?>
<!-- Generator: Adobe Illustrator 19.0.0, SVG Export Plug-In . SVG Version: 6.00 Build 0)  -->
<svg version="1.1" id="Capa_1" xmlns="http://www.w3.org/2000/svg" xmlns:xlink="http://www.w3.org/1999/xlink" x="0px" y="0px"
	 viewBox="0 0 512 512" style="enable-background:new 0 0 512 512;" xml:space="preserve">
<g>
	<g>
		<path d="M256,242.001c-41.352,0-74.998,33.646-74.998,74.998c0,24.403,11.896,45.911,29.999,59.616v30.382c0,8.291,6.709,15,15,15
			s15-6.709,15-15v-16.518c4.849,0.989,9.864,1.518,15,1.518c5.136,0,10.151-0.529,15-1.518v16.518c0,8.291,6.709,15,15,15
			s15-6.709,15-15v-30.382c18.104-13.705,29.999-35.212,29.999-59.616C330.999,275.647,297.351,242.001,256,242.001z"/>
	</g>
</g>
<g>
	<g>
		<path d="M256,0.006c-8.291,0-15,6.709-15,15v16.516c4.99-0.562,9.864-1.516,15-1.516c5.136,0,10.01,0.954,15,1.516V15.006
			C271,6.715,264.291,0.006,256,0.006z"/>
	</g>
</g>
<g>
	<g>
		<path d="M150.683,250.129c-10.334-13.065-18.316-27.869-23.278-44.197l-36.402-18.203V81.215l55.604-55.604
			c5.859-5.859,5.859-15.352,0-21.211c-5.859-5.859-15.352-5.859-21.211,0L65.398,64.399c-2.813,2.813-4.395,6.621-4.395,10.605
			v121.997c0,5.684,3.208,10.869,8.291,13.418l63.165,31.581H75.004c-2.329,0-4.629,0.542-6.709,1.582L8.296,273.582
			c-7.412,3.706-10.415,12.715-6.709,20.127c3.721,7.412,12.744,10.4,20.127,6.709L78.549,272h52.913l24.104,16.069
			c2.26-7.811,5.359-15.194,9.272-22.144C159.62,261.114,155.079,255.687,150.683,250.129z"/>
	</g>
</g>
<g>
	<g>
		<path d="M503.704,273.582l-59.999-29.999c-2.08-1.04-4.38-1.582-6.709-1.582H379.54l63.165-31.581
			c5.083-2.549,8.291-7.734,8.291-13.418V75.004c0-3.984-1.582-7.793-4.395-10.605L386.602,4.401
			c-5.859-5.859-15.352-5.859-21.211,0s-5.859,15.352,0,21.211l55.604,55.604V187.73l-36.402,18.203
			c-4.962,16.328-12.944,31.132-23.278,44.197c-4.396,5.559-8.937,10.986-14.154,15.796c3.913,6.951,7.013,14.333,9.272,22.145
			l24.104-16.069h52.913l56.835,28.417c7.427,3.691,16.406,0.703,20.127-6.709C514.119,286.297,511.116,277.288,503.704,273.582z"/>
	</g>
</g>
<g>
	<g>
		<path d="M446.601,366.393l-59.999-59.999c-2.813-2.813-6.621-4.395-10.605-4.395h-16.516c0.716,4.942,1.516,9.864,1.516,15
			s-0.8,10.058-1.516,15h10.305l51.21,51.21v53.788c0,8.291,6.709,15,15,15c8.291,0,15-6.709,15-15v-59.999
			C450.996,373.014,449.414,369.205,446.601,366.393z"/>
	</g>
</g>
<g>
	<g>
		<path d="M152.518,301.999h-16.516c-3.984,0-7.793,1.582-10.605,4.395l-59.999,59.999c-2.813,2.813-4.395,6.621-4.395,10.605
			v59.999c0,8.291,6.709,15,15,15c8.291,0,15-6.709,15-15v-53.788l51.21-51.21h10.305c-0.716-4.942-1.516-9.864-1.516-15
			S151.802,306.941,152.518,301.999z"/>
	</g>
</g>
<g>
	<g>
		<path d="M236.606,486.388l-55.604-55.604v-40.537c-8.304-8.501-15.022-18.471-20.082-29.379l-5.524,5.524
			c-2.813,2.813-4.395,6.621-4.395,10.605v59.999c0,3.984,1.582,7.793,4.395,10.605l59.999,59.999
			c5.859,5.859,15.352,5.859,21.211,0C242.464,501.74,242.464,492.247,236.606,486.388z"/>
	</g>
</g>
<g>
	<g>
		<path d="M356.603,366.393l-5.524-5.525c-5.059,10.909-11.777,20.88-20.081,29.38v40.537l-55.605,55.604
			c-5.859,5.859-5.859,15.352,0,21.211c5.859,5.859,15.352,5.859,21.211,0l59.999-59.999c2.813-2.813,4.395-6.621,4.395-10.605
			v-59.999C360.998,373.014,359.416,369.205,356.603,366.393z"/>
	</g>
</g>
<g>
	<g>
		<path d="M256,60.005c-57.89,0-104.998,49.108-104.998,106.998c0,29.391,12.217,55.919,31.748,74.998
			c18.939-18.499,44.752-29.999,73.249-29.999c28.497,0,54.312,11.501,73.249,29.999c19.532-19.08,31.748-45.607,31.748-74.998
			C360.998,109.113,313.889,60.005,256,60.005z"/>
	</g>
</g>
<g>
</g>
<g>
</g>
<g>
</g>
<g>
</g>
<g>
</g>
<g>
</g>
<g>
</g>
<g>
</g>
<g>
</g>
<g>
</g>
<g>
</g>
<g>
</g>
<g>
</g>
<g>
</g>
<g>
</g>
</svg>
